# xmcd
#
# Track frame offsets:
#	150
#	16540
#	29202
#	47514
#	63205
#	76030
#	92500
#	105895
#	120939
#	137720
#	149945
#	166445
#	179017
#	192810
#
# Disc length: 2768 seconds
#
# Revision: 0
# Processed by: cddbd v1.5.2PL0 Copyright (c) Steve Scherf et al.
# Submitted via: EasyCDDAExtractor 2010.6.0.0
#
DISCID=b00ace0e
DTITLE=Various Artist - Mr Music Country  02 2011
DYEAR=1900
DGENRE=Country
TTITLE0=Tracy Lawrence - Rock and a soft place
TTITLE1=Pappy Booker - Who would I be
TTITLE2=Sammy Kershaw - Takin' the long way home
TTITLE3=Kevin Deal - Diesel
TTITLE4=Amber Digby - Let me be the Judge
TTITLE5=The Seldom Scene - Darling Corey
TTITLE6=Jody Nix - Twin fiddles turn me on
TTITLE7=Erin Hay - Long days
TTITLE8=Shane Worley - Mooney had his back
TTITLE9=Lonnie Spiker - Go ahead and make my day
TTITLE10=Jamie Beaver - I know you, you're a heartache
TTITLE11=Pete Schlegel - Gotta get to her before my reputation
TTITLE12=Kenny Serrat - Hank and Lefty raised my country soul (ext.ver.)
TTITLE13=Darrell McCall, Curtis Potter, Ray Sanders - Mansion on the hill
EXTD=
EXTT0=
EXTT1=
EXTT2=
EXTT3=
EXTT4=
EXTT5=
EXTT6=
EXTT7=
EXTT8=
EXTT9=
EXTT10=
EXTT11=
EXTT12=
EXTT13=
PLAYORDER=
